<?xml version="1.0" encoding="UTF-8"?>
<svg id="Layer_1" data-name="Layer 1" xmlns="http://www.w3.org/2000/svg" viewBox="0 0 20.95 27.46">
  <defs>
    <style>
      .cls-1 {
        fill: #063380;
      }

      .cls-1, .cls-2 {
        stroke-width: 0px;
      }

      .cls-2 {
        fill: #058ecc;
      }
    </style>
  </defs>
  <path class="cls-2" d="m.02,21.93c0-1.33,0-2.64,0-3.96,0-2.81,0-5.62,0-8.44,0-.34.1-.56.39-.73,3.3-2.06,6.72-3.88,10.41-5.15,1.84-.63,3.73-1.09,5.71-.96,1.14.08,2.18.4,3.04,1.19.88.81,1.03,1.8.7,2.87-.55,1.77-1.74,3.12-3.01,4.39-2.76,2.77-5.93,5-9.27,7.01-2.41,1.44-4.89,2.74-7.53,3.73-.13.05-.24.11-.44.05Z"/>
  <path class="cls-1" d="m0,27.46C0,26.22,0,25,0,23.79c0-.24.07-.35.31-.42,8.22-2.26,14.82-6.97,20.32-13.35.02-.02.05-.04.19-.14v17.58H0Z"/>
  <path class="cls-1" d="m.09,7.17V0h20.86v1.8c-.05,0-.12,0-.18-.03-2.06-1.02-4.23-1.06-6.43-.72C10,1.74,6.12,3.62,2.36,5.78c-.74.43-1.47.9-2.27,1.39Z"/>
</svg>