<?xml version="1.0" encoding="utf-8"?>
<!-- Generator: Adobe Illustrator 27.4.1, SVG Export Plug-In . SVG Version: 6.00 Build 0)  -->
<svg version="1.1" id="Layer_1" xmlns="http://www.w3.org/2000/svg" xmlns:xlink="http://www.w3.org/1999/xlink" x="0px" y="0px"
	 viewBox="0 0 688 329.8" style="enable-background:new 0 0 688 329.8;" xml:space="preserve">
<style type="text/css">
	.st0{fill:#1A1A1A;}
	.st1{fill:#6B4DFF;}
	.st2{fill:#FFFFFF;}
</style>
<g>
	<path class="st0" d="M154.77-363.92h13.55v53.85h-13.55V-363.92z M154.31-385.92h14.47v13.5h-14.47V-385.92z"/>
	<g>
		<path class="st0" d="M183.95-328.43v-24.46h-9.19v-11.02h9.19v-17.45h13.55v17.45h11.03l4.82,11.02H197.5v23.54
			c0,3.06,0.52,5.42,1.55,7.06c1.03,1.65,2.7,2.47,4.99,2.47c2.14,0,3.8-0.41,5.11-0.92c2.71-1.06,3.91-2.19,4.92-3.15l4.44,9.35
			c-2.68,2.14-5.32,3.71-7.92,4.71c-2.6,0.99-5.51,1.49-8.73,1.49c-6.58,0-11.22-1.84-13.89-5.51
			C185.29-317.53,183.95-322.39,183.95-328.43"/>
		<path class="st0" d="M216.86-289.85l6.08-9.53c0.77,0.61,1.61,1.21,2.53,1.78c0.92,0.57,2.07,0.86,3.44,0.86
			c1.84,0,3.37-0.77,4.59-2.3c1.23-1.53,2.45-3.9,3.68-7.12l1.73-4.36l-24.23-53.39h15.62l15.39,36.86l13.55-36.86h14.81
			l-22.51,53.85c-1.07,2.6-2.16,5.34-3.27,8.21s-2.41,5.51-3.9,7.92c-1.49,2.41-3.39,4.38-5.69,5.91s-5.24,2.3-8.84,2.3
			c-3.06,0-5.61-0.38-7.64-1.15C220.17-287.63,218.39-288.63,216.86-289.85"/>
		<path class="st0" d="M272.92-316.61l8.15-8.84c1.68,1.68,3.81,3.08,6.37,4.19s5.49,1.66,8.78,1.66c2.91,0,5.24-0.4,7-1.21
			c1.76-0.8,2.64-2.05,2.64-3.73c0-1.07-0.33-2.01-0.98-2.81c-0.65-0.8-1.93-1.61-3.85-2.41c-1.91-0.8-4.86-1.66-8.84-2.58
			c-2.38-0.61-4.9-1.53-7.58-2.76c-2.68-1.22-4.96-2.96-6.83-5.22c-1.88-2.26-2.81-5.11-2.81-8.56c0-3.6,1.09-6.66,3.27-9.19
			s4.97-4.44,8.38-5.74s6.91-1.95,10.51-1.95c4.75,0,8.8,0.5,12.17,1.49c3.37,1,6.35,2.49,8.96,4.48l-7,9.53
			c-1.46-1.07-3.39-2.05-5.8-2.93c-2.41-0.88-5.19-1.32-8.32-1.32c-3.14,0-5.36,0.48-6.66,1.43c-1.3,0.96-1.95,2.12-1.95,3.5
			c0,1.68,1.05,3.01,3.16,3.96c2.11,0.96,5.38,1.97,9.82,3.04c5.44,1.22,9.78,3.12,13.03,5.68c3.25,2.57,4.88,6.45,4.88,11.66
			c0,3.44-1.05,6.45-3.16,9.01c-2.11,2.56-4.9,4.53-8.38,5.91s-7.33,2.07-11.54,2.07c-4.98,0-9.51-0.71-13.61-2.12
			C278.64-311.77,275.37-313.85,272.92-316.61"/>
		<path class="st0" d="M366.74-325.79l8.04,8.73c-2.53,2.68-5.53,4.82-9.02,6.43c-3.48,1.61-7.48,2.41-12,2.41
			c-6.12,0-11.56-1.32-15.89-3.73c-4.33-2.41-7.62-5.78-9.88-10.1s-3.39-9.32-3.39-14.99c0-5.2,1.22-9.99,3.68-14.35
			c2.45-4.36,5.84-7.85,10.16-10.45s9.7-4.5,15.44-4.5c4.36,0,8.58,0.5,12.18,2.07s6.66,3.69,9.18,6.37l-8.61,8.73
			c-1.46-1.76-3.23-3.14-5.34-4.13s-4.68-1.27-7.36-1.27c-3.45,0-6.7,1.46-8.96,3.07c-2.26,1.61-3.94,3.7-5.05,6.26
			c-1.11,2.57-1.66,5.3-1.66,8.21c0,2.68,0.56,5.32,1.66,7.93c1.11,2.6,2.8,4.75,5.05,6.43c2.26,1.68,5.32,2.64,8.77,2.64
			c2.68,0,5.15-0.52,7.41-1.55C363.43-322.63,365.29-324.03,366.74-325.79"/>
		<path class="st0" d="M413.76-329.12v-5.28c-1.76-0.15-3.68-0.27-5.74-0.34c-2.07-0.07-3.64-0.11-4.71-0.11
			c-4.36,0-7.42,0.86-9.18,2.58c-1.76,1.72-2.64,3.69-2.64,5.92c0,2.29,0.82,4.09,2.47,5.39s4.08,1.95,7.29,1.95
			c2.14,0,4.15-0.46,6.03-1.38s3.43-2.14,4.65-3.67C413.15-325.6,413.76-327.29,413.76-329.12 M414.1-310.06l-0.34-5.05
			c-1.46,1.76-3.7,3.33-6.72,4.71s-6.33,2.07-9.93,2.07c-2.91,0-5.8-0.61-8.67-1.84c-2.87-1.22-5.25-3.14-7.12-5.74
			c-1.88-2.6-2.81-5.89-2.81-9.87c0-6.12,2.18-10.87,6.55-14.24c4.36-3.37,10.07-5.05,17.11-5.05c1.3,0,2.85,0.04,4.65,0.11
			c1.8,0.08,4.11,0.19,6.95,0.34v-1.26c0-2.68-1.07-4.78-3.22-6.32c-2.14-1.53-4.87-2.19-8.31-2.19c-3.83,0-6.79,1.07-9.09,2.06
			c-2.3,1-4.04,1.96-5.8,3.11L380.5-358c1.45-1.07,3.53-2.43,5.53-3.46c1.99-1.03,4.33-2.13,7.24-2.82s6.45-1.47,10.74-1.47
			c6.89,0,12.4,1.82,16.54,5.45c4.13,3.64,6.2,8.33,6.2,14.07v36.17H414.1z"/>
		<path class="st0" d="M450.46-339.23v15.96c2.68,2.22,6.73,3.33,12.17,3.33c3.29,0,6.09-0.81,8.38-2.41
			c2.3-1.61,4.06-3.69,5.28-6.26c1.22-2.56,1.84-5.26,1.84-8.1c0-3.06-0.44-5.84-1.32-8.32c-0.88-2.49-2.36-4.48-4.42-5.97
			c-2.07-1.49-4.82-2.24-8.27-2.24c-2.76,0-5.15,0.73-7.18,2.18c-2.03,1.46-3.62,3.27-4.77,5.45
			C451.04-343.42,450.46-341.3,450.46-339.23 M437.03-287.1v-76.82h13.09l0.35,6.09c1.38-1.53,3.46-3.1,6.26-4.71
			c2.79-1.61,6.41-2.41,10.85-2.41c5.51,0,10.05,1.36,13.61,4.08s6.22,6.22,7.98,10.5c1.76,4.29,2.64,8.84,2.64,13.66
			c0,4.21-0.61,7.81-1.84,10.79c-1.22,2.98-2.76,5.59-4.59,7.81c-3.06,3.6-6.41,6.14-10.05,7.64c-3.64,1.49-7.37,2.24-11.19,2.24
			c-3.52,0-6.18-0.29-7.98-0.86c-1.8-0.57-3.7-1.24-5.68-2.01v24L437.03-287.1L437.03-287.1z"/>
		<path class="st0" d="M512.17-342.67h26.41c0-1.84-0.48-3.66-1.43-5.45c-0.96-1.8-2.35-3.29-4.19-4.48c-1.84-1.18-4.17-1.78-7-1.78
			c-2.99,0-5.49,0.59-7.52,1.78s-3.58,2.68-4.65,4.48C512.71-346.33,512.17-344.51,512.17-342.67 M544.44-326.14l7.35,8.27
			c-0.23,0.23-0.86,0.86-1.9,1.89c-1.03,1.03-2.53,2.14-4.48,3.33c-1.95,1.19-4.44,2.22-7.46,3.1c-3.03,0.88-6.64,1.32-10.85,1.32
			c-5.74,0-10.74-1.25-14.98-3.73c-4.25-2.49-7.56-5.95-9.93-10.39s-3.56-9.53-3.56-15.27c0-5.28,1.17-10.05,3.5-14.3
			s5.55-7.62,9.65-10.1c4.09-2.49,8.82-3.73,14.18-3.73c4.97,0,9.14,0.88,12.51,2.64s6.09,4.12,8.15,7.06
			c2.07,2.95,3.56,6.26,4.48,9.93s1.38,7.43,1.38,11.25v1.95h-40.19c0,2.6,0.75,4.88,2.24,6.83s3.39,3.48,5.68,4.59
			c2.3,1.11,4.63,1.66,7.01,1.66c3.52,0,6.43-0.4,8.72-1.21c2.3-0.8,4.14-1.7,5.51-2.7C542.83-324.72,543.83-325.52,544.44-326.14"
			/>
		<path class="st0" d="M138.45-332.8l10.1,8.73c-1.53,2.3-3.83,4.67-6.89,7.12s-6.7,4.52-10.91,6.2c-4.21,1.68-8.77,2.52-13.66,2.52
			c-7.58,0-14.3-1.72-20.15-5.17c-5.85-3.44-10.45-8.17-13.78-14.18s-4.99-12.8-4.99-20.38c0-5.59,0.96-10.83,2.87-15.73
			c1.91-4.9,4.61-9.2,8.1-12.92c3.48-3.71,7.64-6.62,12.46-8.73c4.82-2.1,10.14-3.16,15.96-3.16c7.58,0,13.87,1.49,18.89,4.48
			c5.01,2.99,9.05,6.62,12.11,10.91l-10.22,9.07c-2.45-3.52-5.3-6.35-8.55-8.5c-3.26-2.14-7.33-3.22-12.23-3.22
			c-4.98,0-9.28,1.26-12.92,3.79c-3.64,2.52-6.43,5.88-8.38,10.05s-2.93,8.71-2.93,13.61s0.98,9.34,2.93,13.32s4.69,7.16,8.21,9.53
			s7.65,3.56,12.4,3.56c4.44,0,8.02-0.65,10.74-1.95s4.9-2.81,6.54-4.54C135.79-330.1,137.22-331.57,138.45-332.8"/>
		<path class="st0" d="M122.25-226.64v-12.21h27.28v31.51c-2.97,2.82-6.87,5.29-11.7,7.42s-11.09,3.2-18.78,3.2
			c-8.3,0-15.41-1.75-21.35-5.25c-5.94-3.5-10.5-8.24-13.7-14.21s-4.79-12.65-4.79-20.03c0-5.55,0.95-10.77,2.85-15.64
			s4.58-9.15,8.05-12.84c3.46-3.69,7.59-6.58,12.39-8.68c4.79-2.09,10.08-3.14,15.87-3.14c7.53,0,13.79,1.48,18.78,4.45
			c4.98,2.97,9,6.58,12.04,10.84l-10.16,9.02c-2.44-3.5-5.27-6.32-8.5-8.45c-3.24-2.13-7.29-3.2-12.16-3.2
			c-4.95,0-9.23,1.26-12.84,3.77s-6.39,5.84-8.33,9.99c-1.94,4.15-2.91,8.66-2.91,13.53c0,5.4,1.16,10.12,3.48,14.15
			s5.4,7.15,9.25,9.36c3.84,2.21,8.05,3.31,12.61,3.31c7,0,12.4-1.67,16.21-5.02v-11.87L122.25-226.64L122.25-226.64z"/>
	</g>
	<rect x="158.04" y="-274.7" class="st0" width="13.47" height="76.14"/>
	<g>
		<path class="st0" d="M207.53-208.38c3.42,0,6.26-0.87,8.5-2.63c2.24-1.75,3.92-3.94,5.02-6.56s1.65-5.23,1.65-7.82
			s-0.55-5.17-1.65-7.76c-1.1-2.59-2.78-4.75-5.02-6.51c-2.25-1.75-5.08-2.63-8.5-2.63s-6.26,0.88-8.5,2.63
			c-2.25,1.75-3.92,3.92-5.02,6.51s-1.66,5.18-1.66,7.76c0,2.59,0.55,5.19,1.66,7.82c1.1,2.63,2.78,4.81,5.02,6.56
			C201.27-209.25,204.11-208.38,207.53-208.38 M178.77-225.39c0-5.17,1.22-9.93,3.65-14.27s5.8-7.8,10.1-10.39s9.3-3.88,15.01-3.88
			c5.71,0,10.71,1.3,15.01,3.88c4.3,2.59,7.67,6.05,10.1,10.39c2.43,4.34,3.65,9.09,3.65,14.27s-1.22,9.93-3.65,14.27
			c-2.44,4.34-5.8,7.82-10.1,10.44c-4.3,2.63-9.3,3.94-15.01,3.94c-5.71,0-10.71-1.31-15.01-3.94c-4.3-2.63-7.67-6.11-10.1-10.44
			C179.98-215.46,178.77-220.21,178.77-225.39"/>
		<path class="st0" d="M256.39-229.72v20.2c1.07,0.3,2.17,0.57,3.31,0.8c1.14,0.23,2.93,0.34,5.37,0.34c3.65,0,6.72-0.82,9.19-2.45
			c2.47-1.64,4.36-3.77,5.65-6.39c1.29-2.63,1.94-5.42,1.94-8.39c0-2.74-0.46-5.33-1.37-7.76s-2.32-4.4-4.22-5.88
			s-4.38-2.23-7.42-2.23c-4.03,0-7.12,1.05-9.25,3.14C257.45-236.25,256.39-233.38,256.39-229.72 M242.92-200.27v-74.43h13.47v26.25
			c0.91-0.91,2.68-1.94,5.31-3.08c2.62-1.14,5.72-1.71,9.3-1.71c5.17,0,9.59,1.24,13.24,3.71s6.45,5.76,8.39,9.87
			s2.91,8.68,2.91,13.7c0,5.33-1.24,10.2-3.71,14.61s-5.96,7.95-10.44,10.62c-4.49,2.66-9.86,4-16.1,4c-4.64,0-8.92-0.38-12.84-1.14
			C248.53-198.64,245.35-199.44,242.92-200.27"/>
		<path class="st0" d="M335.62-217.51v-5.25c-1.75-0.15-3.65-0.27-5.71-0.34c-2.06-0.08-3.62-0.11-4.68-0.11
			c-4.34,0-7.38,0.86-9.13,2.57s-2.63,3.67-2.63,5.88c0,2.28,0.82,4.07,2.45,5.37c1.64,1.29,4.05,1.94,7.25,1.94
			c2.13,0,4.13-0.46,5.99-1.37s3.4-2.13,4.62-3.65C335.01-214.01,335.62-215.68,335.62-217.51 M335.96-198.56l-0.34-5.02
			c-1.45,1.75-3.67,3.31-6.68,4.68c-3.01,1.37-6.3,2.06-9.87,2.06c-2.89,0-5.76-0.61-8.62-1.83c-2.85-1.22-5.21-3.12-7.08-5.71
			s-2.8-5.86-2.8-9.82c0-6.09,2.17-10.8,6.51-14.15c4.34-3.35,10.01-5.02,17.01-5.02c1.29,0,2.83,0.04,4.62,0.11
			c1.79,0.08,4.09,0.19,6.91,0.34v-1.26c0-2.66-1.07-4.75-3.2-6.28c-2.13-1.52-4.91-2.28-8.33-2.28c-3.81,0-6.85,0.5-9.13,1.48
			c-2.28,0.99-4.3,2.05-6.05,3.2l-6.16-9.13c1.45-1.07,3.16-2.11,5.14-3.14s4.41-1.88,7.31-2.57c2.89-0.68,6.47-1.03,10.73-1.03
			c6.85,0,12.33,1.81,16.44,5.42c4.11,3.62,6.16,8.28,6.16,13.98v35.96h-12.57L335.96-198.56L335.96-198.56z"/>
	</g>
	<rect x="356.22" y="-274.7" class="st0" width="13.47" height="76.14"/>
	<polygon class="st1" points="577.5,-428.78 577.23,-309.28 616.73,-333.96 617,-453.46 	"/>
</g>
<g>
	<path class="st2" d="M97.81,114.33h17.3v68.76h-17.3V114.33z M97.22,86.24h18.48v17.24H97.22V86.24z"/>
	<g>
		<path class="st2" d="M135.06,159.64v-31.23h-11.73v-14.07h11.73V92.06h17.3v22.28h14.08l6.15,14.07h-20.24v30.06
			c0,3.91,0.66,6.92,1.98,9.01c1.32,2.11,3.45,3.15,6.37,3.15c2.73,0,4.85-0.52,6.52-1.17c3.46-1.35,4.99-2.8,6.28-4.02l5.67,11.94
			c-3.42,2.73-6.79,4.74-10.11,6.01c-3.32,1.26-7.04,1.9-11.15,1.9c-8.4,0-14.33-2.35-17.74-7.04
			C136.78,173.56,135.06,167.36,135.06,159.64"/>
		<path class="st2" d="M177.09,208.9l7.76-12.17c0.98,0.78,2.06,1.54,3.23,2.27c1.17,0.73,2.64,1.1,4.39,1.1
			c2.35,0,4.3-0.98,5.86-2.94c1.57-1.95,3.13-4.98,4.7-9.09l2.21-5.57l-30.94-68.17h19.94l19.65,47.06l17.3-47.06h18.91
			l-28.74,68.76c-1.37,3.32-2.76,6.82-4.18,10.48s-3.08,7.04-4.98,10.11c-1.9,3.08-4.33,5.59-7.27,7.55s-6.69,2.94-11.29,2.94
			c-3.91,0-7.16-0.49-9.76-1.47C181.31,211.74,179.04,210.46,177.09,208.9"/>
		<path class="st2" d="M248.66,174.74l10.41-11.29c2.15,2.15,4.86,3.93,8.13,5.35s7.01,2.12,11.21,2.12c3.72,0,6.69-0.51,8.94-1.54
			c2.25-1.02,3.37-2.62,3.37-4.76c0-1.37-0.42-2.57-1.25-3.59c-0.83-1.02-2.46-2.06-4.92-3.08c-2.44-1.02-6.21-2.12-11.29-3.29
			c-3.04-0.78-6.26-1.95-9.68-3.52c-3.42-1.56-6.33-3.78-8.72-6.67c-2.4-2.89-3.59-6.52-3.59-10.93c0-4.6,1.39-8.5,4.18-11.73
			s6.35-5.67,10.7-7.33s8.82-2.49,13.42-2.49c6.07,0,11.24,0.64,15.54,1.9c4.3,1.28,8.11,3.18,11.44,5.72l-8.94,12.17
			c-1.86-1.37-4.33-2.62-7.41-3.74c-3.08-1.12-6.63-1.69-10.62-1.69c-4.01,0-6.84,0.61-8.5,1.83c-1.66,1.23-2.49,2.71-2.49,4.47
			c0,2.15,1.34,3.84,4.03,5.06c2.69,1.23,6.87,2.52,12.54,3.88c6.95,1.56,12.49,3.98,16.64,7.25c4.15,3.28,6.23,8.24,6.23,14.89
			c0,4.39-1.34,8.24-4.03,11.5c-2.69,3.27-6.26,5.78-10.7,7.55c-4.44,1.76-9.36,2.64-14.73,2.64c-6.36,0-12.14-0.91-17.38-2.71
			C255.97,180.92,251.79,178.26,248.66,174.74"/>
		<path class="st2" d="M368.46,163.01l10.27,11.15c-3.23,3.42-7.06,6.15-11.52,8.21c-4.44,2.06-9.55,3.08-15.32,3.08
			c-7.81,0-14.76-1.69-20.29-4.76c-5.53-3.08-9.73-7.38-12.62-12.9c-2.89-5.52-4.33-11.9-4.33-19.14c0-6.64,1.56-12.76,4.7-18.32
			c3.13-5.57,7.46-10.02,12.97-13.34s12.39-5.75,19.71-5.75c5.57,0,10.96,0.64,15.55,2.64c4.6,2,8.5,4.71,11.72,8.13l-10.99,11.15
			c-1.86-2.25-4.12-4.01-6.82-5.27c-2.69-1.26-5.98-1.62-9.4-1.62c-4.41,0-8.55,1.86-11.44,3.92c-2.89,2.06-5.03,4.72-6.45,7.99
			c-1.42,3.28-2.12,6.77-2.12,10.48c0,3.42,0.72,6.79,2.12,10.13c1.42,3.32,3.58,6.07,6.45,8.21c2.89,2.15,6.79,3.37,11.2,3.37
			c3.42,0,6.58-0.66,9.46-1.98C364.23,167.05,366.61,165.26,368.46,163.01"/>
		<path class="st2" d="M428.49,158.76v-6.74c-2.25-0.19-4.7-0.34-7.33-0.43c-2.64-0.09-4.65-0.14-6.01-0.14
			c-5.57,0-9.47,1.1-11.72,3.29c-2.25,2.2-3.37,4.71-3.37,7.56c0,2.92,1.05,5.22,3.15,6.88s5.21,2.49,9.31,2.49
			c2.73,0,5.3-0.59,7.7-1.76c2.4-1.17,4.38-2.73,5.94-4.69C427.72,163.26,428.49,161.1,428.49,158.76 M428.93,183.1l-0.43-6.45
			c-1.86,2.25-4.72,4.25-8.58,6.01c-3.86,1.76-8.08,2.64-12.68,2.64c-3.72,0-7.41-0.78-11.07-2.35c-3.66-1.56-6.7-4.01-9.09-7.33
			c-2.4-3.32-3.59-7.52-3.59-12.6c0-7.81,2.78-13.88,8.36-18.18c5.57-4.3,12.86-6.45,21.85-6.45c1.66,0,3.64,0.05,5.94,0.14
			c2.3,0.1,5.25,0.24,8.87,0.43v-1.61c0-3.42-1.37-6.1-4.11-8.07c-2.73-1.95-6.22-2.8-10.61-2.8c-4.89,0-8.67,1.37-11.61,2.63
			c-2.94,1.28-5.16,2.5-7.41,3.97l-8.75-11.21c1.85-1.37,4.51-3.1,7.06-4.42c2.54-1.32,5.53-2.72,9.24-3.6s8.24-1.88,13.71-1.88
			c8.8,0,15.83,2.32,21.12,6.96c5.27,4.65,7.92,10.64,7.92,17.97v46.18L428.93,183.1L428.93,183.1z"/>
		<path class="st2" d="M475.35,145.85v20.38c3.42,2.83,8.59,4.25,15.54,4.25c4.2,0,7.78-1.03,10.7-3.08
			c2.94-2.06,5.18-4.71,6.74-7.99c1.56-3.27,2.35-6.72,2.35-10.34c0-3.91-0.56-7.46-1.69-10.62c-1.12-3.18-3.01-5.72-5.64-7.62
			c-2.64-1.9-6.15-2.86-10.56-2.86c-3.52,0-6.58,0.93-9.17,2.78c-2.59,1.86-4.62,4.18-6.09,6.96
			C476.1,140.5,475.35,143.21,475.35,145.85 M458.21,212.42v-98.09h16.71l0.45,7.78c1.76-1.95,4.42-3.96,7.99-6.01
			c3.56-2.06,8.18-3.08,13.85-3.08c7.04,0,12.83,1.74,17.38,5.21c4.55,3.47,7.94,7.94,10.19,13.41c2.25,5.48,3.37,11.29,3.37,17.44
			c0,5.38-0.78,9.97-2.35,13.78c-1.56,3.8-3.52,7.14-5.86,9.97c-3.91,4.6-8.18,7.84-12.83,9.76c-4.65,1.9-9.41,2.86-14.29,2.86
			c-4.49,0-7.89-0.37-10.19-1.1c-2.3-0.73-4.72-1.58-7.25-2.57v30.64H458.21z"/>
		<path class="st2" d="M554.15,141.46h33.72c0-2.35-0.61-4.67-1.83-6.96c-1.23-2.3-3-4.2-5.35-5.72c-2.35-1.51-5.32-2.27-8.94-2.27
			c-3.82,0-7.01,0.75-9.6,2.27c-2.59,1.52-4.57,3.42-5.94,5.72C554.84,136.79,554.15,139.11,554.15,141.46 M595.35,162.57
			l9.38,10.56c-0.29,0.29-1.1,1.1-2.43,2.41c-1.32,1.32-3.23,2.73-5.72,4.25c-2.49,1.52-5.67,2.83-9.53,3.96
			c-3.87,1.12-8.48,1.69-13.85,1.69c-7.33,0-13.71-1.6-19.13-4.76c-5.43-3.18-9.65-7.6-12.68-13.27s-4.55-12.17-4.55-19.5
			c0-6.74,1.49-12.83,4.47-18.26c2.98-5.43,7.09-9.73,12.32-12.9c5.22-3.18,11.26-4.76,18.11-4.76c6.35,0,11.67,1.12,15.97,3.37
			c4.3,2.25,7.78,5.26,10.41,9.01c2.64,3.77,4.55,7.99,5.72,12.68c1.17,4.69,1.76,9.49,1.76,14.36v2.49H554.3
			c0,3.32,0.96,6.23,2.86,8.72c1.9,2.49,4.33,4.44,7.25,5.86c2.94,1.42,5.91,2.12,8.95,2.12c4.49,0,8.21-0.51,11.13-1.54
			c2.94-1.02,5.29-2.17,7.04-3.45C593.3,164.38,594.57,163.36,595.35,162.57"/>
		<path class="st2" d="M76.97,154.06l12.9,11.15c-1.95,2.94-4.89,5.96-8.8,9.09c-3.91,3.13-8.55,5.77-13.93,7.92
			c-5.38,2.15-11.2,3.22-17.44,3.22c-9.68,0-18.26-2.2-25.73-6.6c-7.47-4.39-13.34-10.43-17.59-18.11C2.12,153.05,0,144.39,0,134.71
			c0-7.14,1.23-13.83,3.66-20.08c2.44-6.26,5.89-11.75,10.34-16.5c4.44-4.74,9.76-8.45,15.91-11.15c6.15-2.68,12.95-4.03,20.38-4.03
			c9.68,0,17.71,1.9,24.12,5.72c6.4,3.82,11.56,8.45,15.46,13.93l-13.05,11.58c-3.13-4.49-6.77-8.11-10.92-10.85
			c-4.16-2.73-9.36-4.11-15.62-4.11c-6.36,0-11.85,1.61-16.5,4.84c-4.65,3.22-8.21,7.51-10.7,12.83
			c-2.49,5.32-3.74,11.12-3.74,17.38c0,6.26,1.25,11.93,3.74,17.01s5.99,9.14,10.48,12.17s9.77,4.55,15.83,4.55
			c5.67,0,10.24-0.83,13.71-2.49s6.26-3.59,8.35-5.8C73.57,157.51,75.4,155.63,76.97,154.06"/>
		<path class="st1" d="M56.28,289.61v-15.59h34.83v40.23c-3.79,3.6-8.77,6.75-14.94,9.47c-6.17,2.72-14.16,4.09-23.98,4.09
			c-10.6,0-19.68-2.23-27.26-6.7c-7.58-4.47-13.41-10.52-17.49-18.14c-4.09-7.62-6.12-16.15-6.12-25.58
			c0-7.09,1.21-13.75,3.64-19.97c2.43-6.22,5.85-11.68,10.28-16.39c4.42-4.71,9.69-8.4,15.82-11.08c6.12-2.67,12.87-4.01,20.26-4.01
			c9.61,0,17.61,1.89,23.98,5.68c6.36,3.79,11.49,8.4,15.37,13.84l-12.97,11.52c-3.12-4.47-6.73-8.07-10.85-10.79
			c-4.14-2.72-9.31-4.09-15.53-4.09c-6.32,0-11.79,1.61-16.39,4.81c-4.61,3.2-8.16,7.46-10.64,12.76s-3.72,11.06-3.72,17.28
			c0,6.89,1.48,12.92,4.44,18.07s6.89,9.13,11.81,11.95c4.9,2.82,10.28,4.23,16.1,4.23c8.94,0,15.83-2.13,20.7-6.41v-15.16
			L56.28,289.61L56.28,289.61z"/>
	</g>
	<rect x="101.98" y="228.25" class="st1" width="17.2" height="97.22"/>
	<g>
		<path class="st1" d="M165.17,312.93c4.37,0,7.99-1.11,10.85-3.36c2.86-2.23,5.01-5.03,6.41-8.38c1.4-3.35,2.11-6.68,2.11-9.98
			c0-3.31-0.7-6.6-2.11-9.91c-1.4-3.31-3.55-6.06-6.41-8.31c-2.87-2.23-6.49-3.36-10.85-3.36c-4.37,0-7.99,1.12-10.85,3.36
			c-2.87,2.23-5.01,5.01-6.41,8.31c-1.4,3.31-2.12,6.61-2.12,9.91c0,3.31,0.7,6.63,2.12,9.98c1.4,3.36,3.55,6.14,6.41,8.38
			C157.18,311.82,160.81,312.93,165.17,312.93 M128.45,291.21c0-6.6,1.56-12.68,4.66-18.22c3.1-5.54,7.41-9.96,12.9-13.27
			c5.49-3.31,11.87-4.95,19.17-4.95c7.29,0,13.67,1.66,19.17,4.95c5.49,3.31,9.79,7.72,12.9,13.27c3.1,5.54,4.66,11.61,4.66,18.22
			c0,6.61-1.56,12.68-4.66,18.22c-3.12,5.54-7.41,9.98-12.9,13.33c-5.49,3.36-11.87,5.03-19.17,5.03s-13.67-1.67-19.17-5.03
			c-5.49-3.36-9.79-7.8-12.9-13.33C130,303.89,128.45,297.82,128.45,291.21"/>
		<path class="st1" d="M227.56,285.68v25.79c1.37,0.38,2.77,0.73,4.23,1.02c1.46,0.29,3.74,0.43,6.86,0.43
			c4.66,0,8.58-1.05,11.73-3.13c3.15-2.09,5.57-4.81,7.21-8.16c1.65-3.36,2.48-6.92,2.48-10.71c0-3.5-0.59-6.81-1.75-9.91
			s-2.96-5.62-5.39-7.51c-2.43-1.89-5.59-2.85-9.47-2.85c-5.15,0-9.09,1.34-11.81,4.01C228.91,277.34,227.56,281.01,227.56,285.68
			 M210.36,323.28v-95.04h17.2v33.52c1.16-1.16,3.42-2.48,6.78-3.93c3.35-1.46,7.3-2.18,11.87-2.18c6.6,0,12.24,1.58,16.91,4.74
			c4.66,3.15,8.24,7.35,10.71,12.6c2.48,5.25,3.72,11.08,3.72,17.49c0,6.81-1.58,13.02-4.74,18.65
			c-3.15,5.63-7.61,10.15-13.33,13.56c-5.73,3.4-12.59,5.11-20.56,5.11c-5.92,0-11.39-0.49-16.39-1.46
			C217.52,325.36,213.46,324.34,210.36,323.28"/>
		<path class="st1" d="M328.72,301.27v-6.7c-2.23-0.19-4.66-0.34-7.29-0.43c-2.63-0.1-4.62-0.14-5.98-0.14
			c-5.54,0-9.42,1.1-11.66,3.28s-3.36,4.69-3.36,7.51c0,2.91,1.05,5.2,3.13,6.86c2.09,1.65,5.17,2.48,9.26,2.48
			c2.72,0,5.27-0.59,7.65-1.75s4.34-2.72,5.9-4.66C327.94,305.74,328.72,303.61,328.72,301.27 M329.16,325.47l-0.43-6.41
			c-1.85,2.23-4.69,4.23-8.53,5.98s-8.04,2.63-12.6,2.63c-3.69,0-7.35-0.78-11.01-2.34c-3.64-1.56-6.65-3.98-9.04-7.29
			s-3.58-7.48-3.58-12.54c0-7.78,2.77-13.79,8.31-18.07c5.54-4.28,12.78-6.41,21.72-6.41c1.65,0,3.61,0.05,5.9,0.14
			c2.29,0.1,5.22,0.24,8.82,0.43v-1.61c0-3.4-1.37-6.07-4.09-8.02c-2.72-1.94-6.27-2.91-10.64-2.91c-4.86,0-8.75,0.64-11.66,1.89
			c-2.91,1.26-5.49,2.62-7.72,4.09l-7.87-11.66c1.85-1.37,4.03-2.69,6.56-4.01c2.53-1.32,5.63-2.4,9.33-3.28
			c3.69-0.87,8.26-1.32,13.7-1.32c8.75,0,15.74,2.31,20.99,6.92c5.25,4.62,7.87,10.57,7.87,17.85v45.92h-16.05L329.16,325.47
			L329.16,325.47z"/>
	</g>
	<rect x="355.03" y="228.25" class="st1" width="17.2" height="97.22"/>
	<polygon class="st1" points="637.56,31.51 637.22,184.09 687.66,152.58 688,0 	"/>
</g>
<g>
	<path class="st2" d="M154.77,664.08h13.55v53.85h-13.55V664.08z M154.31,642.08h14.47v13.5h-14.47V642.08z"/>
	<g>
		<path class="st2" d="M183.95,699.57v-24.46h-9.19v-11.02h9.19v-17.45h13.55v17.45h11.03l4.82,11.02H197.5v23.54
			c0,3.06,0.52,5.42,1.55,7.06c1.03,1.65,2.7,2.47,4.99,2.47c2.14,0,3.8-0.41,5.11-0.92c2.71-1.06,3.91-2.19,4.92-3.15l4.44,9.35
			c-2.68,2.14-5.32,3.71-7.92,4.71c-2.6,0.99-5.51,1.49-8.73,1.49c-6.58,0-11.22-1.84-13.89-5.51
			C185.29,710.47,183.95,705.61,183.95,699.57"/>
		<path class="st2" d="M216.86,738.15l6.08-9.53c0.77,0.61,1.61,1.21,2.53,1.78s2.07,0.86,3.44,0.86c1.84,0,3.37-0.77,4.59-2.3
			c1.23-1.53,2.45-3.9,3.68-7.12l1.73-4.36l-24.23-53.39h15.62l15.39,36.86l13.55-36.86h14.81l-22.51,53.85
			c-1.07,2.6-2.16,5.34-3.27,8.21s-2.41,5.51-3.9,7.92c-1.49,2.41-3.39,4.38-5.69,5.91c-2.3,1.53-5.24,2.3-8.84,2.3
			c-3.06,0-5.61-0.38-7.64-1.15C220.17,740.37,218.39,739.37,216.86,738.15"/>
		<path class="st2" d="M272.92,711.39l8.15-8.84c1.68,1.68,3.81,3.08,6.37,4.19s5.49,1.66,8.78,1.66c2.91,0,5.24-0.4,7-1.21
			c1.76-0.8,2.64-2.05,2.64-3.73c0-1.07-0.33-2.01-0.98-2.81c-0.65-0.8-1.93-1.61-3.85-2.41c-1.91-0.8-4.86-1.66-8.84-2.58
			c-2.38-0.61-4.9-1.53-7.58-2.76c-2.68-1.22-4.96-2.96-6.83-5.22c-1.88-2.26-2.81-5.11-2.81-8.56c0-3.6,1.09-6.66,3.27-9.19
			s4.97-4.44,8.38-5.74s6.91-1.95,10.51-1.95c4.75,0,8.8,0.5,12.17,1.49c3.37,1,6.35,2.49,8.96,4.48l-7,9.53
			c-1.46-1.07-3.39-2.05-5.8-2.93c-2.41-0.88-5.19-1.32-8.32-1.32c-3.14,0-5.36,0.48-6.66,1.43c-1.3,0.96-1.95,2.12-1.95,3.5
			c0,1.68,1.05,3.01,3.16,3.96c2.11,0.96,5.38,1.97,9.82,3.04c5.44,1.22,9.78,3.12,13.03,5.68c3.25,2.57,4.88,6.45,4.88,11.66
			c0,3.44-1.05,6.45-3.16,9.01c-2.11,2.56-4.9,4.53-8.38,5.91s-7.33,2.07-11.54,2.07c-4.98,0-9.51-0.71-13.61-2.12
			C278.64,716.23,275.37,714.15,272.92,711.39"/>
		<path class="st2" d="M366.74,702.21l8.04,8.73c-2.53,2.68-5.53,4.82-9.02,6.43c-3.48,1.61-7.48,2.41-12,2.41
			c-6.12,0-11.56-1.32-15.89-3.73c-4.33-2.41-7.62-5.78-9.88-10.1s-3.39-9.32-3.39-14.99c0-5.2,1.22-9.99,3.68-14.35
			c2.45-4.36,5.84-7.85,10.16-10.45c4.32-2.6,9.7-4.5,15.44-4.5c4.36,0,8.58,0.5,12.18,2.07s6.66,3.69,9.18,6.37l-8.61,8.73
			c-1.46-1.76-3.23-3.14-5.34-4.13s-4.68-1.27-7.36-1.27c-3.45,0-6.7,1.46-8.96,3.07c-2.26,1.61-3.94,3.7-5.05,6.26
			c-1.11,2.57-1.66,5.3-1.66,8.21c0,2.68,0.56,5.32,1.66,7.93c1.11,2.6,2.8,4.75,5.05,6.43c2.26,1.68,5.32,2.64,8.77,2.64
			c2.68,0,5.15-0.52,7.41-1.55C363.43,705.37,365.29,703.97,366.74,702.21"/>
		<path class="st2" d="M413.76,698.88v-5.28c-1.76-0.15-3.68-0.27-5.74-0.34c-2.07-0.07-3.64-0.11-4.71-0.11
			c-4.36,0-7.42,0.86-9.18,2.58c-1.76,1.72-2.64,3.69-2.64,5.92c0,2.29,0.82,4.09,2.47,5.39s4.08,1.95,7.29,1.95
			c2.14,0,4.15-0.46,6.03-1.38s3.43-2.14,4.65-3.67C413.15,702.4,413.76,700.71,413.76,698.88 M414.1,717.94l-0.34-5.05
			c-1.46,1.76-3.7,3.33-6.72,4.71s-6.33,2.07-9.93,2.07c-2.91,0-5.8-0.61-8.67-1.84c-2.87-1.22-5.25-3.14-7.12-5.74
			c-1.88-2.6-2.81-5.89-2.81-9.87c0-6.12,2.18-10.87,6.55-14.24c4.36-3.37,10.07-5.05,17.11-5.05c1.3,0,2.85,0.04,4.65,0.11
			c1.8,0.08,4.11,0.19,6.95,0.34v-1.26c0-2.68-1.07-4.78-3.22-6.32c-2.14-1.53-4.87-2.19-8.31-2.19c-3.83,0-6.79,1.07-9.09,2.06
			c-2.3,1-4.04,1.96-5.8,3.11L380.5,670c1.45-1.07,3.53-2.43,5.53-3.46c1.99-1.03,4.33-2.13,7.24-2.82s6.45-1.47,10.74-1.47
			c6.89,0,12.4,1.82,16.54,5.45c4.13,3.64,6.2,8.33,6.2,14.07v36.17H414.1L414.1,717.94z"/>
		<path class="st2" d="M450.46,688.77v15.96c2.68,2.22,6.73,3.33,12.17,3.33c3.29,0,6.09-0.81,8.38-2.41
			c2.3-1.61,4.06-3.69,5.28-6.26c1.22-2.56,1.84-5.26,1.84-8.1c0-3.06-0.44-5.84-1.32-8.32c-0.88-2.49-2.36-4.48-4.42-5.97
			c-2.07-1.49-4.82-2.24-8.27-2.24c-2.76,0-5.15,0.73-7.18,2.18c-2.03,1.46-3.62,3.27-4.77,5.45
			C451.04,684.58,450.46,686.7,450.46,688.77 M437.03,740.9v-76.82h13.09l0.35,6.09c1.38-1.53,3.46-3.1,6.26-4.71
			c2.79-1.61,6.41-2.41,10.85-2.41c5.51,0,10.05,1.36,13.61,4.08c3.56,2.72,6.22,6.22,7.98,10.5c1.76,4.29,2.64,8.84,2.64,13.66
			c0,4.21-0.61,7.81-1.84,10.79c-1.22,2.98-2.76,5.59-4.59,7.81c-3.06,3.6-6.41,6.14-10.05,7.64c-3.64,1.49-7.37,2.24-11.19,2.24
			c-3.52,0-6.18-0.29-7.98-0.86c-1.8-0.57-3.7-1.24-5.68-2.01v24H437.03L437.03,740.9z"/>
		<path class="st2" d="M512.17,685.33h26.41c0-1.84-0.48-3.66-1.43-5.45c-0.96-1.8-2.35-3.29-4.19-4.48c-1.84-1.18-4.17-1.78-7-1.78
			c-2.99,0-5.49,0.59-7.52,1.78s-3.58,2.68-4.65,4.48C512.71,681.67,512.17,683.49,512.17,685.33 M544.44,701.86l7.35,8.27
			c-0.23,0.23-0.86,0.86-1.9,1.89c-1.03,1.03-2.53,2.14-4.48,3.33c-1.95,1.19-4.44,2.22-7.46,3.1c-3.03,0.88-6.64,1.32-10.85,1.32
			c-5.74,0-10.74-1.25-14.98-3.73c-4.25-2.49-7.56-5.95-9.93-10.39s-3.56-9.53-3.56-15.27c0-5.28,1.17-10.05,3.5-14.3
			s5.55-7.62,9.65-10.1c4.09-2.49,8.82-3.73,14.18-3.73c4.97,0,9.14,0.88,12.51,2.64s6.09,4.12,8.15,7.06
			c2.07,2.95,3.56,6.26,4.48,9.93s1.38,7.43,1.38,11.25v1.95h-40.19c0,2.6,0.75,4.88,2.24,6.83s3.39,3.48,5.68,4.59
			c2.3,1.11,4.63,1.66,7.01,1.66c3.52,0,6.43-0.4,8.72-1.21c2.3-0.8,4.14-1.7,5.51-2.7C542.83,703.28,543.83,702.48,544.44,701.86"
			/>
		<path class="st2" d="M138.45,695.2l10.1,8.73c-1.53,2.3-3.83,4.67-6.89,7.12s-6.7,4.52-10.91,6.2c-4.21,1.68-8.77,2.52-13.66,2.52
			c-7.58,0-14.3-1.72-20.15-5.17c-5.85-3.44-10.45-8.17-13.78-14.18s-4.99-12.8-4.99-20.38c0-5.59,0.96-10.83,2.87-15.73
			c1.91-4.9,4.61-9.2,8.1-12.92c3.48-3.71,7.64-6.62,12.46-8.73c4.82-2.1,10.14-3.16,15.96-3.16c7.58,0,13.87,1.49,18.89,4.48
			c5.01,2.99,9.05,6.62,12.11,10.91l-10.22,9.07c-2.45-3.52-5.3-6.35-8.55-8.5c-3.26-2.14-7.33-3.22-12.23-3.22
			c-4.98,0-9.28,1.26-12.92,3.79c-3.64,2.52-6.43,5.88-8.38,10.05s-2.93,8.71-2.93,13.61c0,4.9,0.98,9.34,2.93,13.32
			s4.69,7.16,8.21,9.53s7.65,3.56,12.4,3.56c4.44,0,8.02-0.65,10.74-1.95s4.9-2.81,6.54-4.54
			C135.79,697.9,137.22,696.43,138.45,695.2"/>
		<path class="st2" d="M122.25,801.36v-12.21h27.28v31.51c-2.97,2.82-6.87,5.29-11.7,7.42s-11.09,3.2-18.78,3.2
			c-8.3,0-15.41-1.75-21.35-5.25c-5.94-3.5-10.5-8.24-13.7-14.21c-3.2-5.97-4.79-12.65-4.79-20.03c0-5.55,0.95-10.77,2.85-15.64
			s4.58-9.15,8.05-12.84c3.46-3.69,7.59-6.58,12.39-8.68c4.79-2.09,10.08-3.14,15.87-3.14c7.53,0,13.79,1.48,18.78,4.45
			c4.98,2.97,9,6.58,12.04,10.84l-10.16,9.02c-2.44-3.5-5.27-6.32-8.5-8.45c-3.24-2.13-7.29-3.2-12.16-3.2
			c-4.95,0-9.23,1.26-12.84,3.77s-6.39,5.84-8.33,9.99c-1.94,4.15-2.91,8.66-2.91,13.53c0,5.4,1.16,10.12,3.48,14.15
			s5.4,7.15,9.25,9.36c3.84,2.21,8.05,3.31,12.61,3.31c7,0,12.4-1.67,16.21-5.02v-11.87L122.25,801.36L122.25,801.36z"/>
	</g>
	<rect x="158.04" y="753.3" class="st2" width="13.47" height="76.14"/>
	<g>
		<path class="st2" d="M207.53,819.62c3.42,0,6.26-0.87,8.5-2.63c2.24-1.75,3.92-3.94,5.02-6.56s1.65-5.23,1.65-7.82
			s-0.55-5.17-1.65-7.76c-1.1-2.59-2.78-4.75-5.02-6.51c-2.25-1.75-5.08-2.63-8.5-2.63s-6.26,0.88-8.5,2.63
			c-2.25,1.75-3.92,3.92-5.02,6.51s-1.66,5.18-1.66,7.76c0,2.59,0.55,5.19,1.66,7.82c1.1,2.63,2.78,4.81,5.02,6.56
			C201.27,818.75,204.11,819.62,207.53,819.62 M178.77,802.61c0-5.17,1.22-9.93,3.65-14.27s5.8-7.8,10.1-10.39s9.3-3.88,15.01-3.88
			c5.71,0,10.71,1.3,15.01,3.88c4.3,2.59,7.67,6.05,10.1,10.39c2.43,4.34,3.65,9.09,3.65,14.27s-1.22,9.93-3.65,14.27
			c-2.44,4.34-5.8,7.82-10.1,10.44c-4.3,2.63-9.3,3.94-15.01,3.94c-5.71,0-10.71-1.31-15.01-3.94c-4.3-2.63-7.67-6.11-10.1-10.44
			C179.98,812.54,178.77,807.79,178.77,802.61"/>
		<path class="st2" d="M256.39,798.28v20.2c1.07,0.3,2.17,0.57,3.31,0.8c1.14,0.23,2.93,0.34,5.37,0.34c3.65,0,6.72-0.82,9.19-2.45
			c2.47-1.64,4.36-3.77,5.65-6.39c1.29-2.63,1.94-5.42,1.94-8.39c0-2.74-0.46-5.33-1.37-7.76s-2.32-4.4-4.22-5.88
			s-4.38-2.23-7.42-2.23c-4.03,0-7.12,1.05-9.25,3.14C257.45,791.75,256.39,794.62,256.39,798.28 M242.92,827.73V753.3h13.47v26.25
			c0.91-0.91,2.68-1.94,5.31-3.08c2.62-1.14,5.72-1.71,9.3-1.71c5.17,0,9.59,1.24,13.24,3.71c3.65,2.47,6.45,5.76,8.39,9.87
			s2.91,8.68,2.91,13.7c0,5.33-1.24,10.2-3.71,14.61s-5.96,7.95-10.44,10.62c-4.49,2.66-9.86,4-16.1,4c-4.64,0-8.92-0.38-12.84-1.14
			C248.53,829.36,245.35,828.56,242.92,827.73"/>
		<path class="st2" d="M335.62,810.49v-5.25c-1.75-0.15-3.65-0.27-5.71-0.34c-2.06-0.08-3.62-0.11-4.68-0.11
			c-4.34,0-7.38,0.86-9.13,2.57s-2.63,3.67-2.63,5.88c0,2.28,0.82,4.07,2.45,5.37c1.64,1.29,4.05,1.94,7.25,1.94
			c2.13,0,4.13-0.46,5.99-1.37s3.4-2.13,4.62-3.65C335.01,813.99,335.62,812.32,335.62,810.49 M335.96,829.44l-0.34-5.02
			c-1.45,1.75-3.67,3.31-6.68,4.68c-3.01,1.37-6.3,2.06-9.87,2.06c-2.89,0-5.76-0.61-8.62-1.83c-2.85-1.22-5.21-3.12-7.08-5.71
			s-2.8-5.86-2.8-9.82c0-6.09,2.17-10.8,6.51-14.15c4.34-3.35,10.01-5.02,17.01-5.02c1.29,0,2.83,0.04,4.62,0.11
			c1.79,0.08,4.09,0.19,6.91,0.34v-1.26c0-2.66-1.07-4.75-3.2-6.28c-2.13-1.52-4.91-2.28-8.33-2.28c-3.81,0-6.85,0.5-9.13,1.48
			c-2.28,0.99-4.3,2.05-6.05,3.2l-6.16-9.13c1.45-1.07,3.16-2.11,5.14-3.14s4.41-1.88,7.31-2.57c2.89-0.68,6.47-1.03,10.73-1.03
			c6.85,0,12.33,1.81,16.44,5.42c4.11,3.62,6.16,8.28,6.16,13.98v35.96h-12.57L335.96,829.44L335.96,829.44z"/>
	</g>
	<rect x="356.22" y="753.3" class="st2" width="13.47" height="76.14"/>
	<polygon class="st2" points="577.5,599.22 577.23,718.72 616.73,694.04 617,574.54 	"/>
</g>
<g>
	<path class="st2" d="M-116.06-967.15h14.64v13.66h-14.64V-967.15z M-115.59-944.88h13.71v54.5h-13.71V-944.88z"/>
	<g>
		<path class="st2" d="M-86.06-908.98v-24.75h-9.3v-11.16h9.3v-17.66h13.71v17.66h11.16l4.87,11.16h-16.03v23.82
			c0,3.1,0.52,5.48,1.57,7.15s2.73,2.5,5.05,2.5c2.17,0,3.85-0.41,5.17-0.93c2.74-1.07,3.95-2.22,4.98-3.19l4.49,9.46
			c-2.71,2.17-5.39,3.76-8.02,4.76c-2.64,1.01-5.58,1.51-8.83,1.51c-6.66,0-11.35-1.86-14.06-5.58
			C-84.7-897.94-86.06-902.86-86.06-908.98"/>
		<path class="st2" d="M-52.76-869.93l6.16-9.65c0.77,0.62,1.63,1.22,2.56,1.8s2.09,0.87,3.49,0.87c1.86,0,3.41-0.77,4.65-2.32
			s2.48-3.95,3.72-7.2l1.74-4.42l-24.52-54.03h15.8l15.57,37.3l13.71-37.3H5.11l-22.77,54.5c-1.09,2.63-2.19,5.4-3.31,8.31
			c-1.12,2.9-2.44,5.58-3.95,8.02s-3.43,4.43-5.75,5.98s-5.31,2.32-8.95,2.32c-3.1,0-5.68-0.39-7.73-1.16
			C-49.41-867.69-51.21-868.69-52.76-869.93"/>
		<path class="st2" d="M3.98-897.01l8.25-8.95c1.7,1.7,3.85,3.12,6.45,4.24c2.59,1.12,5.56,1.68,8.89,1.68
			c2.94,0,5.31-0.41,7.09-1.22s2.67-2.07,2.67-3.78c0-1.09-0.33-2.04-0.99-2.85s-1.96-1.63-3.89-2.44
			c-1.94-0.81-4.92-1.68-8.95-2.61c-2.4-0.62-4.96-1.55-7.67-2.79s-5.02-3-6.91-5.29c-1.9-2.28-2.85-5.17-2.85-8.66
			c0-3.64,1.1-6.74,3.31-9.3s5.03-4.49,8.48-5.81s6.99-1.97,10.63-1.97c4.8,0,8.91,0.5,12.32,1.51s6.43,2.52,9.06,4.53l-7.09,9.64
			c-1.47-1.08-3.43-2.07-5.87-2.96s-5.25-1.34-8.42-1.34c-3.18,0-5.42,0.48-6.74,1.45s-1.98,2.15-1.98,3.54
			c0,1.7,1.06,3.04,3.2,4.01c2.13,0.97,5.44,2,9.94,3.08c5.5,1.24,9.89,3.16,13.19,5.75c3.29,2.6,4.94,6.53,4.94,11.8
			c0,3.48-1.06,6.52-3.2,9.12c-2.13,2.6-4.96,4.59-8.48,5.98c-3.53,1.4-7.42,2.09-11.68,2.09c-5.04,0-9.63-0.72-13.77-2.15
			C9.77-892.11,6.45-894.22,3.98-897.01"/>
		<path class="st2" d="M98.92-906.3l8.13,8.83c-2.56,2.71-5.6,4.88-9.12,6.51c-3.52,1.62-7.57,2.44-12.14,2.44
			c-6.2,0-11.7-1.34-16.08-3.78c-4.38-2.44-7.71-5.85-9.99-10.22c-2.29-4.38-3.43-9.43-3.43-15.17c0-5.27,1.24-10.11,3.72-14.52
			c2.48-4.42,5.91-7.94,10.28-10.57c4.37-2.63,9.81-4.56,15.63-4.56c4.42,0,8.68,0.51,12.32,2.09c3.64,1.59,6.74,3.74,9.3,6.45
			l-8.71,8.83c-1.48-1.78-3.27-3.18-5.41-4.18c-2.13-1.01-4.74-1.28-7.44-1.28c-3.49,0-6.78,1.48-9.06,3.11s-3.99,3.74-5.11,6.33
			c-1.12,2.6-1.68,5.37-1.68,8.31c0,2.71,0.56,5.39,1.68,8.02s2.83,4.8,5.11,6.5s5.39,2.67,8.87,2.67c2.71,0,5.21-0.52,7.49-1.57
			C95.57-903.11,97.45-904.52,98.92-906.3"/>
		<path class="st2" d="M146.85-890.38l-0.35-5.11c-1.47,1.78-3.74,3.37-6.8,4.76s-6.41,2.09-10.05,2.09c-2.94,0-5.87-0.62-8.77-1.86
			c-2.91-1.24-5.31-3.18-7.2-5.81c-1.9-2.63-2.85-5.97-2.85-9.99c0-6.2,2.21-11,6.62-14.41c4.42-3.41,10.19-5.11,17.31-5.11
			c1.32,0,2.89,0.04,4.71,0.12s4.16,0.19,7.03,0.35v-1.28c0-2.71-1.09-4.84-3.26-6.39s-4.92-2.22-8.41-2.22
			c-3.87,0-6.87,1.08-9.19,2.09s-4.09,1.98-5.87,3.14l-6.93-8.88c1.47-1.08,3.58-2.46,5.59-3.5c2.01-1.05,4.38-2.16,7.32-2.85
			c2.94-0.7,6.53-1.49,10.86-1.49c6.97,0,12.55,1.84,16.73,5.52s6.28,8.43,6.28,14.23v36.61L146.85-890.38L146.85-890.38z
			 M146.5-909.67v-5.35c-1.79-0.15-3.72-0.27-5.81-0.35s-3.68-0.12-4.77-0.12c-4.41,0-7.51,0.87-9.29,2.61
			c-1.79,1.74-2.67,3.74-2.67,5.99c0,2.32,0.83,4.14,2.5,5.46c1.67,1.32,4.13,1.98,7.38,1.98c2.17,0,4.2-0.47,6.1-1.4
			c1.9-0.93,3.47-2.17,4.71-3.72C145.88-906.11,146.5-907.81,146.5-909.67"/>
	</g>
	<g>
		<path class="st2" d="M170.05-867.14v-77.74h13.25l0.35,6.16c1.39-1.55,3.5-3.14,6.33-4.77s6.49-2.44,10.98-2.44
			c5.58,0,10.17,1.38,13.77,4.13s6.29,6.29,8.08,10.63c1.78,4.34,2.67,8.95,2.67,13.83c0,4.26-0.62,7.9-1.86,10.92
			s-2.79,5.65-4.65,7.9c-3.1,3.64-6.49,6.22-10.17,7.73s-7.46,2.27-11.33,2.27c-3.56,0-6.26-0.29-8.08-0.87s-3.74-1.26-5.75-2.03
			v24.29L170.05-867.14L170.05-867.14L170.05-867.14z M183.65-919.9v16.15c2.71,2.25,6.82,3.37,12.32,3.37
			c3.33,0,6.16-0.81,8.48-2.44c2.33-1.63,4.11-3.74,5.34-6.33c1.24-2.6,1.86-5.32,1.86-8.19c0-3.1-0.45-5.91-1.34-8.42
			c-0.89-2.52-2.38-4.53-4.48-6.04c-2.09-1.51-4.88-2.27-8.36-2.27c-2.79,0-5.21,0.74-7.26,2.21c-2.05,1.47-3.66,3.31-4.82,5.52
			C184.23-924.14,183.65-921.99,183.65-919.9"/>
		<path class="st2" d="M278.75-906.65l7.44,8.37c-0.23,0.23-0.87,0.87-1.92,1.92c-1.05,1.05-2.56,2.17-4.53,3.37
			c-1.98,1.2-4.49,2.25-7.55,3.14s-6.72,1.34-10.98,1.34c-5.81,0-10.86-1.26-15.16-3.78s-7.65-6.02-10.05-10.51
			c-2.4-4.49-3.6-9.65-3.6-15.45c0-5.35,1.18-10.17,3.54-14.47s5.62-7.71,9.76-10.23s8.93-3.78,14.35-3.78
			c5.03,0,9.25,0.89,12.66,2.67s6.16,4.16,8.25,7.15c2.09,2.98,3.6,6.33,4.53,10.05s1.39,7.52,1.39,11.39v1.98h-40.67
			c0,2.63,0.76,4.94,2.27,6.91c1.51,1.98,3.43,3.53,5.75,4.65s4.69,1.68,7.09,1.68c3.56,0,6.51-0.41,8.83-1.22
			c2.33-0.81,4.18-1.72,5.58-2.73C277.12-905.22,278.13-906.03,278.75-906.65 M246.09-923.38h26.73c0-1.86-0.48-3.7-1.45-5.52
			s-2.38-3.33-4.24-4.53s-4.22-1.8-7.09-1.8c-3.02,0-5.56,0.6-7.61,1.8s-3.62,2.71-4.71,4.53
			C246.64-927.08,246.09-925.24,246.09-923.38"/>
	</g>
	<path class="st2" d="M-132.11-913.39l10.23,8.83c-1.55,2.32-3.87,4.73-6.97,7.2c-3.1,2.48-6.78,4.57-11.04,6.28
		c-4.26,1.7-8.87,2.56-13.83,2.56c-7.67,0-14.47-1.74-20.39-5.23s-10.57-8.27-13.94-14.35c-3.37-6.08-5.05-12.96-5.05-20.63
		c0-5.65,0.97-10.96,2.9-15.92c1.94-4.96,4.67-9.31,8.19-13.07s7.73-6.7,12.61-8.83s10.26-3.2,16.15-3.2
		c7.67,0,14.04,1.51,19.11,4.53s9.16,6.7,12.26,11.04l-10.34,9.18c-2.48-3.56-5.37-6.43-8.66-8.6c-3.29-2.17-7.42-3.25-12.38-3.25
		c-5.04,0-9.39,1.28-13.07,3.83c-3.68,2.56-6.51,5.95-8.48,10.17c-1.98,4.22-2.96,8.81-2.96,13.77s0.99,9.45,2.96,13.48
		c1.98,4.03,4.75,7.24,8.31,9.65c3.56,2.4,7.75,3.6,12.55,3.6c4.49,0,8.11-0.66,10.86-1.98s4.96-2.85,6.62-4.59
		C-134.8-910.66-133.35-912.15-132.11-913.39"/>
	<path class="st1" d="M339.45-918.75v-12.36h27.61v31.88c-3,2.85-6.95,5.35-11.84,7.51c-4.89,2.16-11.23,3.23-19,3.23
		c-8.39,0-15.59-1.77-21.6-5.31s-10.63-8.34-13.86-14.38c-3.23-6.04-4.85-12.8-4.85-20.27c0-5.62,0.96-10.9,2.89-15.83
		c1.92-4.93,4.64-9.26,8.14-13c3.5-3.73,7.68-6.66,12.53-8.78s10.2-3.18,16.06-3.18c7.62,0,13.96,1.5,19,4.51
		c5.04,3,9.11,6.66,12.19,10.97l-10.28,9.13c-2.47-3.54-5.33-6.39-8.61-8.55c-3.27-2.16-7.38-3.23-12.3-3.23
		c-5.01,0-9.34,1.27-13,3.81s-6.47,5.91-8.43,10.11s-2.95,8.76-2.95,13.69c0,5.47,1.17,10.24,3.52,14.32
		c2.35,4.08,5.47,7.24,9.36,9.47c3.89,2.23,8.14,3.35,12.76,3.35c7.08,0,12.55-1.69,16.4-5.08v-12.01L339.45-918.75L339.45-918.75z"
		/>
	<path class="st1" d="M375.66-890.33v-77.05h13.63v77.05H375.66z"/>
	<path class="st1" d="M396.64-917.47c0-5.24,1.23-10.05,3.7-14.44c2.46-4.39,5.87-7.89,10.22-10.51s9.41-3.93,15.19-3.93
		s10.84,1.31,15.19,3.93s7.76,6.12,10.22,10.51s3.7,9.2,3.7,14.44s-1.23,10.05-3.7,14.44s-5.87,7.91-10.22,10.57
		c-4.35,2.66-9.41,3.99-15.19,3.99s-10.84-1.33-15.19-3.99s-7.76-6.18-10.22-10.57C397.87-907.42,396.64-912.24,396.64-917.47z
		 M425.75-900.26c3.47,0,6.33-0.88,8.61-2.66c2.27-1.77,3.97-3.99,5.08-6.64c1.12-2.66,1.68-5.29,1.68-7.91s-0.56-5.24-1.68-7.86
		s-2.81-4.81-5.08-6.58s-5.14-2.66-8.61-2.66c-3.47,0-6.34,0.89-8.61,2.66s-3.97,3.97-5.08,6.58c-1.12,2.62-1.67,5.24-1.67,7.86
		s0.56,5.26,1.67,7.91c1.12,2.66,2.81,4.87,5.08,6.64S422.28-900.26,425.75-900.26z"/>
	<path class="st1" d="M461.56-892.06v-75.32h13.63v26.57c0.92-0.92,2.71-1.96,5.37-3.12s5.79-1.73,9.41-1.73
		c5.24,0,9.7,1.25,13.4,3.75c3.7,2.5,6.53,5.83,8.49,9.99c1.96,4.16,2.95,8.78,2.95,13.86c0,5.39-1.25,10.32-3.75,14.79
		s-6.03,8.05-10.57,10.74s-9.97,4.04-16.29,4.04c-4.7,0-9.03-0.39-13-1.16C467.24-890.4,464.02-891.21,461.56-892.06z
		 M475.19-921.86v20.45c1.08,0.31,2.19,0.58,3.35,0.81s2.96,0.35,5.43,0.35c3.7,0,6.8-0.83,9.3-2.48c2.5-1.66,4.41-3.81,5.72-6.47
		s1.96-5.49,1.96-8.49c0-2.77-0.46-5.39-1.39-7.86c-0.92-2.46-2.35-4.45-4.27-5.95c-1.93-1.5-4.43-2.25-7.51-2.25
		c-4.08,0-7.2,1.06-9.36,3.18C476.27-928.47,475.19-925.56,475.19-921.86z"/>
	<path class="st1" d="M555.72-890.33l-0.35-5.08c-1.46,1.77-3.72,3.35-6.76,4.74c-3.04,1.39-6.37,2.08-9.99,2.08
		c-2.93,0-5.83-0.62-8.72-1.85c-2.89-1.23-5.28-3.16-7.16-5.78c-1.89-2.62-2.83-5.93-2.83-9.93c0-6.16,2.19-10.93,6.58-14.32
		s10.13-5.08,17.21-5.08c1.31,0,2.87,0.04,4.68,0.12s4.14,0.19,6.99,0.35v-1.27c0-2.69-1.08-4.81-3.23-6.35
		c-2.16-1.54-4.97-2.31-8.43-2.31c-3.85,0-6.93,0.5-9.24,1.5s-4.35,2.08-6.12,3.23l-6.24-9.24c1.46-1.08,3.19-2.14,5.2-3.18
		c2-1.04,4.47-1.91,7.39-2.6c2.93-0.69,6.54-1.04,10.86-1.04c6.93,0,12.48,1.83,16.63,5.49c4.16,3.66,6.24,8.38,6.24,14.15v36.39
		h-12.71L555.72-890.33L555.72-890.33z M555.37-909.5v-5.31c-1.77-0.15-3.7-0.27-5.78-0.35s-3.66-0.12-4.74-0.12
		c-4.39,0-7.47,0.87-9.24,2.6s-2.66,3.72-2.66,5.95c0,2.31,0.83,4.12,2.48,5.43c1.66,1.31,4.1,1.96,7.34,1.96
		c2.16,0,4.18-0.46,6.06-1.39c1.89-0.92,3.45-2.16,4.68-3.7C554.75-905.96,555.37-907.66,555.37-909.5z"/>
	<path class="st1" d="M576.22-890.33v-77.05h13.63v77.05H576.22z"/>
</g>
<polygon class="st1" points="619.68,-1009.46 619.41,-889.96 658.91,-914.64 659.18,-1034.14 "/>
<path class="st0" d="M-116.06-2394.15h14.64v13.66h-14.64V-2394.15z M-115.59-2371.88h13.71v54.5h-13.71V-2371.88z"/>
<g>
	<path class="st0" d="M-86.06-2335.98v-24.75h-9.3v-11.16h9.3v-17.66h13.71v17.66h11.16l4.87,11.16h-16.03v23.82
		c0,3.1,0.52,5.48,1.57,7.15s2.73,2.5,5.05,2.5c2.17,0,3.85-0.41,5.17-0.93c2.74-1.07,3.95-2.22,4.98-3.19l4.49,9.46
		c-2.71,2.17-5.39,3.76-8.02,4.76c-2.64,1.01-5.58,1.51-8.83,1.51c-6.66,0-11.35-1.86-14.06-5.58
		C-84.7-2324.94-86.06-2329.86-86.06-2335.98"/>
	<path class="st0" d="M-52.76-2296.93l6.16-9.65c0.77,0.62,1.63,1.22,2.56,1.8s2.09,0.87,3.49,0.87c1.86,0,3.41-0.77,4.65-2.32
		s2.48-3.95,3.72-7.2l1.74-4.42l-24.52-54.03h15.8l15.57,37.3l13.71-37.3H5.11l-22.77,54.5c-1.09,2.63-2.19,5.4-3.31,8.31
		c-1.12,2.9-2.44,5.58-3.95,8.02s-3.43,4.43-5.75,5.98s-5.31,2.32-8.95,2.32c-3.1,0-5.68-0.39-7.73-1.16
		C-49.41-2294.69-51.21-2295.69-52.76-2296.93"/>
	<path class="st0" d="M3.98-2324.01l8.25-8.95c1.7,1.71,3.85,3.12,6.45,4.24c2.59,1.12,5.56,1.68,8.89,1.68
		c2.94,0,5.31-0.41,7.09-1.22s2.67-2.07,2.67-3.78c0-1.09-0.33-2.04-0.99-2.85s-1.96-1.63-3.89-2.44c-1.94-0.81-4.92-1.68-8.95-2.61
		c-2.4-0.62-4.96-1.55-7.67-2.79s-5.02-3-6.91-5.29c-1.9-2.28-2.85-5.17-2.85-8.66c0-3.64,1.1-6.74,3.31-9.3s5.03-4.49,8.48-5.81
		s6.99-1.97,10.63-1.97c4.8,0,8.91,0.5,12.32,1.51s6.43,2.52,9.06,4.53l-7.09,9.64c-1.47-1.08-3.43-2.07-5.87-2.96
		s-5.25-1.34-8.42-1.34c-3.18,0-5.42,0.48-6.74,1.45s-1.98,2.15-1.98,3.54c0,1.71,1.06,3.04,3.2,4.01c2.13,0.97,5.44,2,9.94,3.08
		c5.5,1.24,9.89,3.16,13.19,5.75c3.29,2.6,4.94,6.53,4.94,11.8c0,3.48-1.06,6.52-3.2,9.12c-2.13,2.6-4.96,4.59-8.48,5.98
		c-3.53,1.4-7.42,2.09-11.68,2.09c-5.04,0-9.63-0.72-13.77-2.15C9.77-2319.11,6.45-2321.22,3.98-2324.01"/>
	<path class="st0" d="M98.92-2333.3l8.13,8.83c-2.56,2.71-5.6,4.88-9.12,6.51c-3.52,1.62-7.57,2.44-12.14,2.44
		c-6.2,0-11.7-1.34-16.08-3.78c-4.38-2.44-7.71-5.85-9.99-10.22c-2.29-4.38-3.43-9.43-3.43-15.17c0-5.27,1.24-10.11,3.72-14.52
		c2.48-4.42,5.91-7.94,10.28-10.57c4.37-2.63,9.81-4.56,15.63-4.56c4.42,0,8.68,0.51,12.32,2.09c3.64,1.59,6.74,3.74,9.3,6.45
		l-8.71,8.83c-1.48-1.78-3.27-3.18-5.41-4.18c-2.13-1.01-4.74-1.28-7.44-1.28c-3.49,0-6.78,1.48-9.06,3.11
		c-2.28,1.63-3.99,3.74-5.11,6.33c-1.12,2.6-1.68,5.37-1.68,8.31c0,2.71,0.56,5.39,1.68,8.02c1.12,2.63,2.83,4.8,5.11,6.5
		s5.39,2.67,8.87,2.67c2.71,0,5.21-0.52,7.49-1.57C95.57-2330.11,97.45-2331.52,98.92-2333.3"/>
	<path class="st0" d="M146.85-2317.38l-0.35-5.11c-1.47,1.78-3.74,3.37-6.8,4.76s-6.41,2.09-10.05,2.09c-2.94,0-5.87-0.62-8.77-1.86
		c-2.91-1.24-5.31-3.18-7.2-5.81c-1.9-2.63-2.85-5.97-2.85-9.99c0-6.2,2.21-11,6.62-14.41c4.42-3.41,10.19-5.11,17.31-5.11
		c1.32,0,2.89,0.04,4.71,0.12s4.16,0.19,7.03,0.35v-1.28c0-2.71-1.09-4.84-3.26-6.39c-2.17-1.55-4.92-2.22-8.41-2.22
		c-3.87,0-6.87,1.08-9.19,2.09s-4.09,1.98-5.87,3.14l-6.93-8.88c1.47-1.08,3.58-2.45,5.59-3.5c2.01-1.05,4.38-2.16,7.32-2.85
		c2.94-0.7,6.53-1.49,10.86-1.49c6.97,0,12.55,1.84,16.73,5.52s6.28,8.43,6.28,14.23v36.61h-12.77L146.85-2317.38L146.85-2317.38z
		 M146.5-2336.67v-5.35c-1.79-0.15-3.72-0.27-5.81-0.35s-3.68-0.12-4.77-0.12c-4.41,0-7.51,0.87-9.29,2.61
		c-1.79,1.74-2.67,3.74-2.67,5.99c0,2.32,0.83,4.14,2.5,5.46c1.67,1.32,4.13,1.98,7.38,1.98c2.17,0,4.2-0.47,6.1-1.4
		c1.9-0.93,3.47-2.17,4.71-3.72C145.88-2333.11,146.5-2334.81,146.5-2336.67"/>
</g>
<g>
	<path class="st0" d="M170.05-2294.14v-77.74h13.25l0.35,6.16c1.39-1.55,3.5-3.14,6.33-4.77c2.83-1.63,6.49-2.44,10.98-2.44
		c5.58,0,10.17,1.38,13.77,4.13s6.29,6.29,8.08,10.63c1.78,4.34,2.67,8.95,2.67,13.83c0,4.26-0.62,7.9-1.86,10.92
		s-2.79,5.65-4.65,7.9c-3.1,3.64-6.49,6.22-10.17,7.73s-7.46,2.27-11.33,2.27c-3.56,0-6.26-0.29-8.08-0.87s-3.74-1.26-5.75-2.03
		v24.29L170.05-2294.14L170.05-2294.14z M183.65-2346.9v16.15c2.71,2.25,6.82,3.37,12.32,3.37c3.33,0,6.16-0.81,8.48-2.44
		c2.33-1.63,4.11-3.74,5.34-6.33c1.24-2.6,1.86-5.32,1.86-8.19c0-3.1-0.45-5.91-1.34-8.42c-0.89-2.52-2.38-4.53-4.48-6.04
		c-2.09-1.51-4.88-2.27-8.36-2.27c-2.79,0-5.21,0.74-7.26,2.21c-2.05,1.47-3.66,3.31-4.82,5.52
		C184.23-2351.14,183.65-2348.99,183.65-2346.9"/>
	<path class="st0" d="M278.75-2333.65l7.44,8.37c-0.23,0.23-0.87,0.87-1.92,1.92c-1.05,1.05-2.56,2.17-4.53,3.37
		c-1.98,1.2-4.49,2.25-7.55,3.14s-6.72,1.34-10.98,1.34c-5.81,0-10.86-1.26-15.16-3.78s-7.65-6.02-10.05-10.51
		c-2.4-4.49-3.6-9.65-3.6-15.45c0-5.35,1.18-10.17,3.54-14.47s5.62-7.71,9.76-10.23s8.93-3.78,14.35-3.78
		c5.03,0,9.25,0.89,12.66,2.67s6.16,4.16,8.25,7.15c2.09,2.98,3.6,6.33,4.53,10.05s1.39,7.52,1.39,11.39v1.98h-40.67
		c0,2.63,0.76,4.94,2.27,6.91c1.51,1.98,3.43,3.53,5.75,4.65c2.32,1.12,4.69,1.69,7.09,1.69c3.56,0,6.51-0.41,8.83-1.22
		c2.33-0.81,4.18-1.72,5.58-2.73C277.12-2332.22,278.13-2333.03,278.75-2333.65 M246.09-2350.38h26.73c0-1.86-0.48-3.7-1.45-5.52
		s-2.38-3.33-4.24-4.53s-4.22-1.8-7.09-1.8c-3.02,0-5.56,0.6-7.61,1.8s-3.62,2.71-4.71,4.53
		C246.64-2354.08,246.09-2352.24,246.09-2350.38"/>
</g>
<path class="st0" d="M-132.11-2340.39l10.23,8.83c-1.55,2.32-3.87,4.73-6.97,7.2c-3.1,2.48-6.78,4.57-11.04,6.28
	c-4.26,1.7-8.87,2.56-13.83,2.56c-7.67,0-14.47-1.74-20.39-5.23s-10.57-8.27-13.94-14.35c-3.37-6.08-5.05-12.96-5.05-20.63
	c0-5.65,0.97-10.96,2.9-15.92c1.94-4.96,4.67-9.31,8.19-13.07s7.73-6.7,12.61-8.83c4.88-2.13,10.26-3.2,16.15-3.2
	c7.67,0,14.04,1.51,19.11,4.53s9.16,6.7,12.26,11.04l-10.34,9.18c-2.48-3.56-5.37-6.43-8.66-8.6c-3.29-2.17-7.42-3.25-12.38-3.25
	c-5.04,0-9.39,1.28-13.07,3.83c-3.68,2.56-6.51,5.95-8.48,10.17c-1.98,4.22-2.96,8.81-2.96,13.77s0.99,9.45,2.96,13.48
	c1.98,4.03,4.75,7.24,8.31,9.65c3.56,2.4,7.75,3.6,12.55,3.6c4.49,0,8.11-0.66,10.86-1.98s4.96-2.85,6.62-4.59
	C-134.8-2337.66-133.35-2339.15-132.11-2340.39"/>
<path class="st1" d="M339.45-2345.75v-12.36h27.61v31.88c-3,2.85-6.95,5.35-11.84,7.51c-4.89,2.16-11.23,3.23-19,3.23
	c-8.39,0-15.59-1.77-21.6-5.31s-10.63-8.34-13.86-14.38c-3.23-6.04-4.85-12.8-4.85-20.27c0-5.62,0.96-10.9,2.89-15.83
	c1.92-4.93,4.64-9.26,8.14-13c3.5-3.73,7.68-6.66,12.53-8.78s10.2-3.18,16.06-3.18c7.62,0,13.96,1.5,19,4.51
	c5.04,3,9.11,6.66,12.19,10.97l-10.28,9.13c-2.47-3.54-5.33-6.39-8.61-8.55c-3.27-2.16-7.38-3.23-12.3-3.23
	c-5.01,0-9.34,1.27-13,3.81s-6.47,5.91-8.43,10.11c-1.96,4.2-2.95,8.76-2.95,13.69c0,5.47,1.17,10.24,3.52,14.32
	c2.35,4.08,5.47,7.24,9.36,9.47c3.89,2.23,8.14,3.35,12.76,3.35c7.08,0,12.55-1.69,16.4-5.08v-12.01L339.45-2345.75L339.45-2345.75z
	"/>
<path class="st1" d="M375.66-2317.33v-77.05h13.63v77.05H375.66z"/>
<path class="st1" d="M396.64-2344.47c0-5.24,1.23-10.05,3.7-14.44c2.46-4.39,5.87-7.89,10.22-10.51s9.41-3.93,15.19-3.93
	s10.84,1.31,15.19,3.93c4.35,2.62,7.76,6.12,10.22,10.51s3.7,9.2,3.7,14.44s-1.23,10.05-3.7,14.44s-5.87,7.91-10.22,10.57
	c-4.35,2.66-9.41,3.99-15.19,3.99s-10.84-1.33-15.19-3.99s-7.76-6.18-10.22-10.57C397.87-2334.42,396.64-2339.24,396.64-2344.47z
	 M425.75-2327.26c3.47,0,6.33-0.88,8.61-2.66c2.27-1.77,3.97-3.99,5.08-6.64c1.12-2.66,1.68-5.29,1.68-7.91
	c0-2.62-0.56-5.24-1.68-7.86s-2.81-4.81-5.08-6.58s-5.14-2.66-8.61-2.66c-3.47,0-6.34,0.89-8.61,2.66s-3.97,3.97-5.08,6.58
	c-1.12,2.62-1.67,5.24-1.67,7.86s0.56,5.26,1.67,7.91c1.12,2.66,2.81,4.87,5.08,6.64S422.28-2327.26,425.75-2327.26z"/>
<path class="st1" d="M461.56-2319.06v-75.32h13.63v26.57c0.92-0.92,2.71-1.96,5.37-3.12c2.66-1.16,5.79-1.73,9.41-1.73
	c5.24,0,9.7,1.25,13.4,3.75c3.7,2.5,6.53,5.83,8.49,9.99c1.96,4.16,2.95,8.78,2.95,13.86c0,5.39-1.25,10.32-3.75,14.79
	s-6.03,8.05-10.57,10.74s-9.97,4.04-16.29,4.04c-4.7,0-9.03-0.39-13-1.16C467.24-2317.4,464.02-2318.21,461.56-2319.06z
	 M475.19-2348.86v20.45c1.08,0.31,2.19,0.58,3.35,0.81s2.96,0.35,5.43,0.35c3.7,0,6.8-0.83,9.3-2.48c2.5-1.66,4.41-3.81,5.72-6.47
	s1.96-5.49,1.96-8.49c0-2.77-0.46-5.39-1.39-7.86c-0.92-2.46-2.35-4.45-4.27-5.95c-1.93-1.5-4.43-2.25-7.51-2.25
	c-4.08,0-7.2,1.06-9.36,3.18C476.27-2355.47,475.19-2352.56,475.19-2348.86z"/>
<path class="st1" d="M555.72-2317.33l-0.35-5.08c-1.46,1.77-3.72,3.35-6.76,4.74c-3.04,1.39-6.37,2.08-9.99,2.08
	c-2.93,0-5.83-0.62-8.72-1.85s-5.28-3.16-7.16-5.78c-1.89-2.62-2.83-5.93-2.83-9.93c0-6.16,2.19-10.93,6.58-14.32
	c4.39-3.39,10.13-5.08,17.21-5.08c1.31,0,2.87,0.04,4.68,0.12s4.14,0.19,6.99,0.35v-1.27c0-2.69-1.08-4.81-3.23-6.35
	c-2.16-1.54-4.97-2.31-8.43-2.31c-3.85,0-6.93,0.5-9.24,1.5s-4.35,2.08-6.12,3.23l-6.24-9.24c1.46-1.08,3.19-2.14,5.2-3.18
	c2-1.04,4.47-1.91,7.39-2.6c2.93-0.69,6.54-1.04,10.86-1.04c6.93,0,12.48,1.83,16.63,5.49c4.16,3.66,6.24,8.38,6.24,14.15v36.39
	h-12.71L555.72-2317.33L555.72-2317.33z M555.37-2336.5v-5.31c-1.77-0.15-3.7-0.27-5.78-0.35s-3.66-0.12-4.74-0.12
	c-4.39,0-7.47,0.87-9.24,2.6s-2.66,3.72-2.66,5.95c0,2.31,0.83,4.12,2.48,5.43c1.66,1.31,4.1,1.96,7.34,1.96
	c2.16,0,4.18-0.46,6.06-1.39c1.89-0.92,3.45-2.16,4.68-3.7C554.75-2332.96,555.37-2334.66,555.37-2336.5z"/>
<path class="st1" d="M576.22-2317.33v-77.05h13.63v77.05H576.22z"/>
<polygon class="st1" points="619.68,-2436.46 619.41,-2316.96 658.91,-2341.64 659.18,-2461.14 "/>
<g>
	<path class="st2" d="M-116.06-1671.15h14.64v13.66h-14.64V-1671.15z M-115.59-1648.88h13.71v54.5h-13.71V-1648.88z"/>
	<g>
		<path class="st2" d="M-86.06-1612.98v-24.75h-9.3v-11.16h9.3v-17.66h13.71v17.66h11.16l4.87,11.16h-16.03v23.82
			c0,3.1,0.52,5.48,1.57,7.15s2.73,2.5,5.05,2.5c2.17,0,3.85-0.41,5.17-0.93c2.74-1.07,3.95-2.22,4.98-3.19l4.49,9.46
			c-2.71,2.17-5.39,3.76-8.02,4.76c-2.64,1.01-5.58,1.51-8.83,1.51c-6.66,0-11.35-1.86-14.06-5.58
			C-84.7-1601.94-86.06-1606.86-86.06-1612.98"/>
		<path class="st2" d="M-52.76-1573.93l6.16-9.65c0.77,0.62,1.63,1.22,2.56,1.8s2.09,0.87,3.49,0.87c1.86,0,3.41-0.77,4.65-2.32
			s2.48-3.95,3.72-7.2l1.74-4.42l-24.52-54.03h15.8l15.57,37.3l13.71-37.3H5.11l-22.77,54.5c-1.09,2.63-2.19,5.4-3.31,8.31
			c-1.12,2.9-2.44,5.58-3.95,8.02s-3.43,4.43-5.75,5.98s-5.31,2.32-8.95,2.32c-3.1,0-5.68-0.39-7.73-1.16
			C-49.41-1571.69-51.21-1572.69-52.76-1573.93"/>
		<path class="st2" d="M3.98-1601.01l8.25-8.95c1.7,1.71,3.85,3.12,6.45,4.24c2.59,1.12,5.56,1.68,8.89,1.68
			c2.94,0,5.31-0.41,7.09-1.22s2.67-2.07,2.67-3.78c0-1.09-0.33-2.04-0.99-2.85s-1.96-1.63-3.89-2.44
			c-1.94-0.81-4.92-1.68-8.95-2.61c-2.4-0.62-4.96-1.55-7.67-2.79s-5.02-3-6.91-5.29c-1.9-2.28-2.85-5.17-2.85-8.66
			c0-3.64,1.1-6.74,3.31-9.3s5.03-4.49,8.48-5.81s6.99-1.97,10.63-1.97c4.8,0,8.91,0.5,12.32,1.51s6.43,2.52,9.06,4.53l-7.09,9.64
			c-1.47-1.08-3.43-2.07-5.87-2.96s-5.25-1.34-8.42-1.34c-3.18,0-5.42,0.48-6.74,1.45s-1.98,2.15-1.98,3.54
			c0,1.71,1.06,3.04,3.2,4.01c2.13,0.97,5.44,2,9.94,3.08c5.5,1.24,9.89,3.16,13.19,5.75c3.29,2.6,4.94,6.53,4.94,11.8
			c0,3.48-1.06,6.52-3.2,9.12c-2.13,2.6-4.96,4.59-8.48,5.98c-3.53,1.4-7.42,2.09-11.68,2.09c-5.04,0-9.63-0.72-13.77-2.15
			C9.77-1596.11,6.45-1598.22,3.98-1601.01"/>
		<path class="st2" d="M98.92-1610.3l8.13,8.83c-2.56,2.71-5.6,4.88-9.12,6.51c-3.52,1.62-7.57,2.44-12.14,2.44
			c-6.2,0-11.7-1.34-16.08-3.78c-4.38-2.44-7.71-5.85-9.99-10.22c-2.29-4.38-3.43-9.43-3.43-15.17c0-5.27,1.24-10.11,3.72-14.52
			c2.48-4.42,5.91-7.94,10.28-10.57c4.37-2.63,9.81-4.56,15.63-4.56c4.42,0,8.68,0.51,12.32,2.09c3.64,1.59,6.74,3.74,9.3,6.45
			l-8.71,8.83c-1.48-1.78-3.27-3.18-5.41-4.18c-2.13-1.01-4.74-1.28-7.44-1.28c-3.49,0-6.78,1.48-9.06,3.11s-3.99,3.74-5.11,6.33
			c-1.12,2.6-1.68,5.37-1.68,8.31c0,2.71,0.56,5.39,1.68,8.02s2.83,4.8,5.11,6.5s5.39,2.67,8.87,2.67c2.71,0,5.21-0.52,7.49-1.57
			C95.57-1607.11,97.45-1608.52,98.92-1610.3"/>
		<path class="st2" d="M146.85-1594.38l-0.35-5.11c-1.47,1.78-3.74,3.37-6.8,4.76s-6.41,2.09-10.05,2.09
			c-2.94,0-5.87-0.62-8.77-1.86c-2.91-1.24-5.31-3.18-7.2-5.81c-1.9-2.63-2.85-5.97-2.85-9.99c0-6.2,2.21-11,6.62-14.41
			c4.42-3.41,10.19-5.11,17.31-5.11c1.32,0,2.89,0.04,4.71,0.12s4.16,0.19,7.03,0.35v-1.28c0-2.71-1.09-4.84-3.26-6.39
			s-4.92-2.22-8.41-2.22c-3.87,0-6.87,1.08-9.19,2.09s-4.09,1.98-5.87,3.14l-6.93-8.88c1.47-1.08,3.58-2.45,5.59-3.5
			c2.01-1.05,4.38-2.16,7.32-2.85c2.94-0.7,6.53-1.49,10.86-1.49c6.97,0,12.55,1.84,16.73,5.52s6.28,8.43,6.28,14.23v36.61
			L146.85-1594.38L146.85-1594.38L146.85-1594.38z M146.5-1613.67v-5.35c-1.79-0.15-3.72-0.27-5.81-0.35s-3.68-0.12-4.77-0.12
			c-4.41,0-7.51,0.87-9.29,2.61c-1.79,1.74-2.67,3.74-2.67,5.99c0,2.32,0.83,4.14,2.5,5.46c1.67,1.32,4.13,1.98,7.38,1.98
			c2.17,0,4.2-0.47,6.1-1.4c1.9-0.93,3.47-2.17,4.71-3.72C145.88-1610.11,146.5-1611.81,146.5-1613.67"/>
	</g>
	<g>
		<path class="st2" d="M170.05-1571.14v-77.74h13.25l0.35,6.16c1.39-1.55,3.5-3.14,6.33-4.77s6.49-2.44,10.98-2.44
			c5.58,0,10.17,1.38,13.77,4.13s6.29,6.29,8.08,10.63c1.78,4.34,2.67,8.95,2.67,13.83c0,4.26-0.62,7.9-1.86,10.92
			s-2.79,5.65-4.65,7.9c-3.1,3.64-6.49,6.22-10.17,7.73s-7.46,2.27-11.33,2.27c-3.56,0-6.26-0.29-8.08-0.87s-3.74-1.26-5.75-2.03
			v24.29L170.05-1571.14L170.05-1571.14z M183.65-1623.9v16.15c2.71,2.25,6.82,3.37,12.32,3.37c3.33,0,6.16-0.81,8.48-2.44
			c2.33-1.63,4.11-3.74,5.34-6.33c1.24-2.6,1.86-5.32,1.86-8.19c0-3.1-0.45-5.91-1.34-8.42c-0.89-2.52-2.38-4.53-4.48-6.04
			c-2.09-1.51-4.88-2.27-8.36-2.27c-2.79,0-5.21,0.74-7.26,2.21c-2.05,1.47-3.66,3.31-4.82,5.52
			C184.23-1628.14,183.65-1625.99,183.65-1623.9"/>
		<path class="st2" d="M278.75-1610.65l7.44,8.37c-0.23,0.23-0.87,0.87-1.92,1.92c-1.05,1.05-2.56,2.17-4.53,3.37
			c-1.98,1.2-4.49,2.25-7.55,3.14s-6.72,1.34-10.98,1.34c-5.81,0-10.86-1.26-15.16-3.78s-7.65-6.02-10.05-10.51
			c-2.4-4.49-3.6-9.65-3.6-15.45c0-5.35,1.18-10.17,3.54-14.47s5.62-7.71,9.76-10.23s8.93-3.78,14.35-3.78
			c5.03,0,9.25,0.89,12.66,2.67s6.16,4.16,8.25,7.15c2.09,2.98,3.6,6.33,4.53,10.05s1.39,7.52,1.39,11.39v1.98h-40.67
			c0,2.63,0.76,4.94,2.27,6.91c1.51,1.98,3.43,3.53,5.75,4.65s4.69,1.69,7.09,1.69c3.56,0,6.51-0.41,8.83-1.22
			c2.33-0.81,4.18-1.72,5.58-2.73C277.12-1609.22,278.13-1610.03,278.75-1610.65 M246.09-1627.38h26.73c0-1.86-0.48-3.7-1.45-5.52
			s-2.38-3.33-4.24-4.53s-4.22-1.8-7.09-1.8c-3.02,0-5.56,0.6-7.61,1.8s-3.62,2.71-4.71,4.53
			C246.64-1631.08,246.09-1629.24,246.09-1627.38"/>
	</g>
	<path class="st2" d="M-132.11-1617.39l10.23,8.83c-1.55,2.32-3.87,4.73-6.97,7.2c-3.1,2.48-6.78,4.57-11.04,6.28
		c-4.26,1.7-8.87,2.56-13.83,2.56c-7.67,0-14.47-1.74-20.39-5.23s-10.57-8.27-13.94-14.35c-3.37-6.08-5.05-12.96-5.05-20.63
		c0-5.65,0.97-10.96,2.9-15.92c1.94-4.96,4.67-9.31,8.19-13.07s7.73-6.7,12.61-8.83s10.26-3.2,16.15-3.2
		c7.67,0,14.04,1.51,19.11,4.53s9.16,6.7,12.26,11.04l-10.34,9.18c-2.48-3.56-5.37-6.43-8.66-8.6c-3.29-2.17-7.42-3.25-12.38-3.25
		c-5.04,0-9.39,1.28-13.07,3.83c-3.68,2.56-6.51,5.95-8.48,10.17c-1.98,4.22-2.96,8.81-2.96,13.77s0.99,9.45,2.96,13.48
		c1.98,4.03,4.75,7.24,8.31,9.65c3.56,2.4,7.75,3.6,12.55,3.6c4.49,0,8.11-0.66,10.86-1.98s4.96-2.85,6.62-4.59
		C-134.8-1614.66-133.35-1616.15-132.11-1617.39"/>
	<path class="st2" d="M339.45-1622.75v-12.36h27.61v31.88c-3,2.85-6.95,5.35-11.84,7.51c-4.89,2.16-11.23,3.23-19,3.23
		c-8.39,0-15.59-1.77-21.6-5.31s-10.63-8.34-13.86-14.38c-3.23-6.04-4.85-12.8-4.85-20.27c0-5.62,0.96-10.9,2.89-15.83
		c1.92-4.93,4.64-9.26,8.14-13c3.5-3.73,7.68-6.66,12.53-8.78s10.2-3.18,16.06-3.18c7.62,0,13.96,1.5,19,4.51
		c5.04,3,9.11,6.66,12.19,10.97l-10.28,9.13c-2.47-3.54-5.33-6.39-8.61-8.55c-3.27-2.16-7.38-3.23-12.3-3.23
		c-5.01,0-9.34,1.27-13,3.81s-6.47,5.91-8.43,10.11s-2.95,8.76-2.95,13.69c0,5.47,1.17,10.24,3.52,14.32
		c2.35,4.08,5.47,7.24,9.36,9.47c3.89,2.23,8.14,3.35,12.76,3.35c7.08,0,12.55-1.69,16.4-5.08v-12.01L339.45-1622.75L339.45-1622.75
		z"/>
	<path class="st2" d="M375.66-1594.33v-77.05h13.63v77.05H375.66z"/>
	<path class="st2" d="M396.64-1621.47c0-5.24,1.23-10.05,3.7-14.44c2.46-4.39,5.87-7.89,10.22-10.51s9.41-3.93,15.19-3.93
		s10.84,1.31,15.19,3.93s7.76,6.12,10.22,10.51s3.7,9.2,3.7,14.44s-1.23,10.05-3.7,14.44s-5.87,7.91-10.22,10.57
		c-4.35,2.66-9.41,3.99-15.19,3.99s-10.84-1.33-15.19-3.99s-7.76-6.18-10.22-10.57C397.87-1611.42,396.64-1616.24,396.64-1621.47z
		 M425.75-1604.26c3.47,0,6.33-0.88,8.61-2.66c2.27-1.77,3.97-3.99,5.08-6.64c1.12-2.66,1.68-5.29,1.68-7.91s-0.56-5.24-1.68-7.86
		s-2.81-4.81-5.08-6.58s-5.14-2.66-8.61-2.66c-3.47,0-6.34,0.89-8.61,2.66s-3.97,3.97-5.08,6.58c-1.12,2.62-1.67,5.24-1.67,7.86
		s0.56,5.26,1.67,7.91c1.12,2.66,2.81,4.87,5.08,6.64S422.28-1604.26,425.75-1604.26z"/>
	<path class="st2" d="M461.56-1596.06v-75.32h13.63v26.57c0.92-0.92,2.71-1.96,5.37-3.12s5.79-1.73,9.41-1.73
		c5.24,0,9.7,1.25,13.4,3.75c3.7,2.5,6.53,5.83,8.49,9.99c1.96,4.16,2.95,8.78,2.95,13.86c0,5.39-1.25,10.32-3.75,14.79
		s-6.03,8.05-10.57,10.74s-9.97,4.04-16.29,4.04c-4.7,0-9.03-0.39-13-1.16C467.24-1594.4,464.02-1595.21,461.56-1596.06z
		 M475.19-1625.86v20.45c1.08,0.31,2.19,0.58,3.35,0.81s2.96,0.35,5.43,0.35c3.7,0,6.8-0.83,9.3-2.48c2.5-1.66,4.41-3.81,5.72-6.47
		s1.96-5.49,1.96-8.49c0-2.77-0.46-5.39-1.39-7.86c-0.92-2.46-2.35-4.45-4.27-5.95c-1.93-1.5-4.43-2.25-7.51-2.25
		c-4.08,0-7.2,1.06-9.36,3.18C476.27-1632.47,475.19-1629.56,475.19-1625.86z"/>
	<path class="st2" d="M555.72-1594.33l-0.35-5.08c-1.46,1.77-3.72,3.35-6.76,4.74c-3.04,1.39-6.37,2.08-9.99,2.08
		c-2.93,0-5.83-0.62-8.72-1.85s-5.28-3.16-7.16-5.78c-1.89-2.62-2.83-5.93-2.83-9.93c0-6.16,2.19-10.93,6.58-14.32
		c4.39-3.39,10.13-5.08,17.21-5.08c1.31,0,2.87,0.04,4.68,0.12s4.14,0.19,6.99,0.35v-1.27c0-2.69-1.08-4.81-3.23-6.35
		c-2.16-1.54-4.97-2.31-8.43-2.31c-3.85,0-6.93,0.5-9.24,1.5s-4.35,2.08-6.12,3.23l-6.24-9.24c1.46-1.08,3.19-2.14,5.2-3.18
		c2-1.04,4.47-1.91,7.39-2.6c2.93-0.69,6.54-1.04,10.86-1.04c6.93,0,12.48,1.83,16.63,5.49c4.16,3.66,6.24,8.38,6.24,14.15v36.39
		h-12.71L555.72-1594.33L555.72-1594.33z M555.37-1613.5v-5.31c-1.77-0.15-3.7-0.27-5.78-0.35s-3.66-0.12-4.74-0.12
		c-4.39,0-7.47,0.87-9.24,2.6s-2.66,3.72-2.66,5.95c0,2.31,0.83,4.12,2.48,5.43c1.66,1.31,4.1,1.96,7.34,1.96
		c2.16,0,4.18-0.46,6.06-1.39c1.89-0.92,3.45-2.16,4.68-3.7C554.75-1609.96,555.37-1611.66,555.37-1613.5z"/>
	<path class="st2" d="M576.22-1594.33v-77.05h13.63v77.05H576.22z"/>
</g>
<polygon class="st2" points="619.68,-1713.46 619.41,-1593.96 658.91,-1618.64 659.18,-1738.14 "/>
</svg>
